# xmcd CD database file
#
# Track frame offsets:
#	150
#	30711
#	43803
#	47929
#	60841
#	64155
#	74197
#	86554
#	88913
#	100705
#	104167
#	124919
#	145407
#	151450
#	170578
#	191079
#
# Disc length: 2768 seconds
#
# Revision: 0
# Processed by: cddbd v1.5.2PL0 Copyright (c) Steve Scherf et al.
# Submitted via: CDex 1.51
#
DISCID=f40ace10
DTITLE=Jiri Stivin and Pierre Favre - Vylety I
DYEAR=1981
DGENRE=Jazz
TTITLE0=Promena prvni
TTITLE1=Skalni kone
TTITLE2=Stary pramen
TTITLE3=Zvuk rosy
TTITLE4=Kaminek
TTITLE5=Koreny
TTITLE6=Sladke drivko
TTITLE7=Znameni
TTITLE8=Barvy temnot
TTITLE9=Mysi pohadka
TTITLE10=Tanec pod zvonem
TTITLE11=Nocni lety
TTITLE12=Bludicka
TTITLE13=Hadi a stiri
TTITLE14=Dech a jeho stiny
TTITLE15=Promena druha
EXTD=YEAR: 1981
EXTT0=
EXTT1=
EXTT2=
EXTT3=
EXTT4=
EXTT5=
EXTT6=
EXTT7=
EXTT8=
EXTT9=
EXTT10=
EXTT11=
EXTT12=
EXTT13=
EXTT14=
EXTT15=
PLAYORDER=
